<svg width="28" height="25" viewBox="0 0 28 25" fill="none" xmlns="http://www.w3.org/2000/svg">
<path d="M24.6667 0H3.33333C1.49333 0 0 1.33333 0 2.97619V22.0238C0 23.6667 1.49333 25 3.33333 25H24.6667C26.5067 25 28 23.6667 28 22.0238V2.97619C28 1.33333 26.5067 0 24.6667 0ZM22 8.92857H20.6667C19.24 8.92857 18.6667 9.22619 18.6667 10.119V11.9048H22L21.3333 14.881H18.6667V23.8095H15.3333V14.881H12.6667V11.9048H15.3333V10.119C15.3333 7.7381 16.6667 5.95238 19.3333 5.95238C21.2667 5.95238 22 6.54762 22 6.54762V8.92857Z" fill="#C0F01F"/>
</svg>
