<svg width="44" height="40" viewBox="0 0 44 40" fill="none" xmlns="http://www.w3.org/2000/svg">
<path d="M18.6525 21.1964L2.82004 5.36406C2.1976 4.74163 1.84676 3.89606 1.84676 3.0138V1.84674H10.483C14.6463 1.82032 18.0418 5.23047 18.0418 9.40252C18.0418 11.0085 17.5456 12.4971 16.6883 13.7214L8.28984 5.32296C7.63951 4.67263 6.75578 4.30564 5.83534 4.30564H4.66386L16.7617 16.4034C18.6804 14.6814 19.8886 12.1829 19.8886 9.40105C19.8886 4.21462 15.6915 0.01468 10.5095 0H0.00146944V3.56136C0.00146944 4.58015 0.406636 5.55637 1.12596 6.27715L16.888 22.039C17.6278 22.7789 18.0433 23.783 18.0433 24.8297V26.0951L0 8.05196V19.9809C0 21.2537 0.506466 22.475 1.40636 23.3764L5.74138 27.7114V20.6474C5.74138 19.7871 5.39934 18.9621 4.79158 18.3529L3.89609 17.4574V23.256L2.88757 22.2475C2.2211 21.581 1.84676 20.6767 1.84676 19.7343V12.5073L19.8901 30.5505V24.1823C19.8901 23.0622 19.4452 21.9862 18.6525 21.1949V21.1964Z" fill="white"/>
<path d="M43.9366 21.5032C43.9366 16.4313 39.923 12.3004 34.8981 12.1095L24.9861 22.0214L24.8745 21.9099C24.1772 21.2126 23.7852 20.2672 23.7852 19.2807V6.15533H35.3443L34.4107 7.08897C33.6958 7.80389 32.7269 8.20612 31.7154 8.20612H25.836V18.2736L32.0075 12.1022H30.4118C29.763 12.1022 29.1405 12.3606 28.6825 12.8186L27.6813 13.8197V10.0529H32.4083C33.4653 10.0529 34.4782 9.63301 35.2254 8.8858L39.7997 4.31152H21.9414V19.0076C21.9414 20.6591 22.5976 22.2446 23.7661 23.4116L24.9875 24.633L35.5954 14.0253C39.2639 14.542 42.0869 17.6938 42.0869 21.5047C42.0869 23.5687 41.2633 25.4419 39.9216 26.8056L29.3372 37.3899L24.7996 32.8523C24.1522 32.2049 23.7882 31.3256 23.7882 30.4096V28.9416L29.3387 34.4921L38.3347 25.4962C39.0364 24.7945 39.4445 23.8535 39.4768 22.8626L39.5149 21.7058L29.3387 31.882L21.9429 24.4862V30.7134C21.9429 31.9245 22.4244 33.0872 23.2802 33.943L29.3372 40L41.2252 28.1122C42.9031 26.4137 43.9381 24.081 43.9381 21.5047L43.9366 21.5032Z" fill="white"/>
</svg>
