<svg width="197" height="179" viewBox="0 0 197 179" fill="none" xmlns="http://www.w3.org/2000/svg">
<path d="M83.4415 94.8193L12.6154 23.9954C9.83092 21.2111 8.26142 17.4285 8.26142 13.4818V8.26115H46.8956C65.5199 8.14295 80.7096 23.3978 80.7096 42.0609C80.7096 49.2451 78.4899 55.9039 74.6547 61.3807L37.0844 23.8115C34.1752 20.9024 30.2218 19.2607 26.1042 19.2607H20.8636L74.9831 73.3784C83.5663 65.6755 88.971 54.4986 88.971 42.0544C88.971 18.8535 70.1957 0.0656689 47.0138 0H0.00657351V15.9313C0.00657351 20.4887 1.81907 24.8557 5.03695 28.08L75.5479 98.5887C78.8577 101.898 80.7162 106.39 80.7162 111.072V116.733L0 36.0194V89.382C0 95.0754 2.26566 100.539 6.29129 104.571L25.6839 123.963V92.3633C25.6839 88.5151 24.1538 84.8245 21.435 82.0993L17.4291 78.0935V104.033L12.9175 99.5212C9.93601 96.5399 8.26142 92.4947 8.26142 88.2787V55.9499L88.9776 136.664V108.176C88.9776 103.166 86.9878 98.3523 83.4415 94.8128V94.8193Z" fill="white"/>
<path d="M196.547 96.192C196.547 73.5034 178.593 55.0241 156.114 54.1704L111.772 98.5101L111.273 98.011C108.154 94.8917 106.401 90.6626 106.401 86.2497V27.5351H158.11L153.933 31.7117C150.735 34.9097 146.401 36.7091 141.876 36.7091H115.575V81.7448L143.183 54.1376H136.044C133.142 54.1376 130.357 55.2934 128.308 57.3422L123.83 61.8209V44.9702H144.976C149.704 44.9702 154.235 43.0921 157.578 39.7495L178.041 19.2871H98.1523V85.0283C98.1523 92.416 101.088 99.5082 106.315 104.729L111.779 110.193L159.233 62.7402C175.644 65.0518 188.273 79.1509 188.273 96.1985C188.273 105.432 184.588 113.811 178.586 119.912L131.237 167.259L110.939 146.961C108.042 144.065 106.414 140.131 106.414 136.033V129.466L131.244 154.296L171.487 114.054C174.626 110.915 176.452 106.706 176.596 102.273L176.767 97.0982L131.244 142.62L98.1589 109.536V137.393C98.1589 142.81 100.313 148.011 104.142 151.84L131.237 178.935L184.418 125.756C191.924 118.158 196.554 107.723 196.554 96.1985L196.547 96.192Z" fill="white"/>
</svg>
